<?xml version="1.0" encoding="UTF-8" standalone="no"?>
<svg
   xmlns:dc="http://purl.org/dc/elements/1.1/"
   xmlns:cc="http://creativecommons.org/ns#"
   xmlns:rdf="http://www.w3.org/1999/02/22-rdf-syntax-ns#"
   xmlns:svg="http://www.w3.org/2000/svg"
   xmlns="http://www.w3.org/2000/svg"
   width="158.75mm"
   height="20.8606mm"
   viewBox="0 0 158.75 20.8606"
   version="1.1"
   id="svg8">
  <defs
     id="defs2" />
  <metadata
     id="metadata5">
    <rdf:RDF>
      <cc:Work
         rdf:about="">
        <dc:format>image/svg+xml</dc:format>
        <dc:type
           rdf:resource="http://purl.org/dc/dcmitype/StillImage" />
        <dc:title></dc:title>
      </cc:Work>
    </rdf:RDF>
  </metadata>
  <g
     id="layer1"
     transform="translate(-12.368833,-38.340937)">
    <g
       id="flowRoot18"
       style="font-style:normal;font-weight:normal;font-size:40px;line-height:1.25;font-family:sans-serif;letter-spacing:0px;word-spacing:0px;fill:#000000;fill-opacity:1;stroke:none"
       transform="matrix(0.792576,0,0,0.792576,-47.712514,-200.71601)"
       aria-label="gourMonds">
      <path
         id="path817"
         style="font-style:normal;font-variant:normal;font-weight:normal;font-stretch:normal;font-family:'Linux Libertine O C';-inkscape-font-specification:'Linux Libertine O C';fill:#ffc426;fill-opacity:1"
         d="m 90.165156,321.06022 v 4.12 c -1,1 -2.36,1.52 -3.76,1.52 -5,0 -7.16,-5.28 -7.16,-8.56 0,-4.84 2.24,-8.32 6.44,-8.32 4.16,0 5.88,2 6.4,4.72 l 1.04,-0.12 c -0.28,-1.6 -0.48,-3.24 -0.52,-5.12 -1.2,0 -4.16,-0.64 -6.4,-0.64 -5.88,0 -10.4,3.64 -10.4,10 0,5.12 4.16,9.2 9.88,9.2 2.72,0 5.64,-1.16 8.12,-2.88 -0.28,-0.28 -0.56,-0.64 -0.56,-0.92 v -3 c 0,-0.96 0.48,-1.16 1.44,-1.32 0.12,0 0.24,-0.08 0.24,-0.24 v -0.88 l -0.08,-0.04 c 0,0 -1.88,0.04 -3,0.04 -1.2,0 -4.4,-0.04 -4.4,-0.04 l -0.04,0.04 v 0.88 c 0,0.16 0.12,0.24 0.24,0.24 l 0.8,0.08 c 1.12,0.12 1.72,0.36 1.72,1.24 z" />
      <path
         id="path819"
         style="font-style:normal;font-variant:normal;font-weight:normal;font-stretch:normal;font-family:'Linux Libertine O C';-inkscape-font-specification:'Linux Libertine O C';fill:#ffc426;fill-opacity:1"
         d="m 117.63078,318.06022 c 0,-5.68 -4.56,-9.4 -9.76,-9.4 -5.56,0 -9.839999,4.04 -9.839999,9.92 0,5.44 4.119999,9.28 9.519999,9.28 6.56,0 10.08,-4.6 10.08,-9.8 z m -10.12,-8.08 c 3.56,0 6.64,3.28 6.64,8.64 0,4.92 -2.44,7.92 -6,7.92 -3.88,0 -6.64,-3.52 -6.64,-8.44 0,-5.4 3,-8.12 6,-8.12 z" />
      <path
         id="path821"
         style="font-style:normal;font-variant:normal;font-weight:normal;font-stretch:normal;font-family:'Linux Libertine O C';-inkscape-font-specification:'Linux Libertine O C';fill:#ffc426;fill-opacity:1"
         d="m 130.05078,327.86022 c 6.44,0 7.8,-3.8 7.8,-9.36 v -7.04 c 0,-0.8 0.32,-1.08 1.56,-1.24 l 0.68,-0.08 c 0.16,0 0.24,-0.08 0.24,-0.2 v -0.88 l -0.08,-0.08 c 0,0 -2.2,0.08 -3.32,0.08 -1.2,0 -3.6,-0.08 -3.6,-0.08 l -0.08,0.08 v 0.88 c 0,0.12 0.12,0.2 0.28,0.2 l 0.8,0.08 c 1.2,0.12 1.72,0.36 1.72,1.24 v 7.56 c 0,3.44 -0.04,7.68 -5.32,7.68 -4.28,0 -4.84,-3.6 -4.84,-7.32 v -7.92 c 0,-0.8 0.44,-1.08 1.72,-1.24 l 0.8,-0.08 c 0.16,0 0.24,-0.08 0.24,-0.2 v -0.88 l -0.08,-0.08 c 0,0 -3,0.08 -4.12,0.08 -1.24,0 -4.24,-0.08 -4.24,-0.08 l -0.08,0.08 v 0.88 c 0,0.12 0.12,0.2 0.24,0.2 l 0.72,0.08 c 1.24,0.16 1.72,0.36 1.72,1.24 v 8.76 c 0,5.8 4.48,7.64 7.24,7.64 z" />
      <path
         id="path823"
         style="font-style:normal;font-variant:normal;font-weight:normal;font-stretch:normal;font-family:'Linux Libertine O C';-inkscape-font-specification:'Linux Libertine O C';fill:#ffc426;fill-opacity:1"
         d="m 145.43453,324.98022 c 0,0.8 -0.48,1.24 -1.68,1.32 l -0.84,0.08 c -0.16,0.04 -0.24,0.08 -0.24,0.24 v 0.84 l 0.04,0.08 c 0,0 3.04,-0.08 4.16,-0.08 1.2,0 4,0.08 4,0.08 l 0.12,-0.08 v -0.84 c 0,-0.16 -0.16,-0.2 -0.28,-0.24 l -0.48,-0.08 c -0.96,-0.12 -1.8,-0.6 -1.8,-1.48 v -5.8 h 0.32 c 2.72,0 3.72,1.64 4.24,2.88 l 1.2,2.4 c 0.56,1.16 1.96,3.56 3.88,3.56 0.52,0 1.4,-0.04 2.16,-0.32 l -0.24,-0.84 c -1.44,0 -2.04,-0.96 -2.8,-2.68 l -1.36,-3 c -0.48,-1.24 -1.6,-2.56 -2.92,-2.68 v -0.04 c 2.32,-0.24 4.4,-1.92 4.4,-4.68 0,-3.16 -2.76,-4.64 -6.6,-4.64 -1,0 -2.36,0.08 -3.84,0.08 -1.6,0 -4.08,-0.08 -4.08,-0.08 l -0.08,0.08 v 0.84 c 0,0.08 0.16,0.24 0.32,0.24 1.28,0.16 2.4,0.28 2.4,1.44 z m 8.88,-11.36 c 0,3.28 -1.48,4.24 -4.52,4.24 h -1.36 v -6.48 c 0,-0.76 0.36,-1.24 2.44,-1.24 2.56,0 3.44,1.04 3.44,3.48 z" />
      <path
         id="path825"
         style="font-style:normal;font-variant:normal;font-weight:normal;font-stretch:normal;font-family:'Linux Libertine O C';-inkscape-font-specification:'Linux Libertine O C';fill:#ffc426;fill-opacity:1"
         d="m 187.21328,323.98022 c 0.04,1.04 -0.24,2.24 -1.32,2.32 l -1.08,0.08 c -0.16,0.04 -0.36,0.12 -0.36,0.32 v 0.76 l 0.12,0.08 c 0,0 2.84,-0.08 4.28,-0.08 1.56,0 4.48,0.08 4.48,0.08 l 0.08,-0.08 v -0.76 c 0,-0.2 -0.16,-0.28 -0.44,-0.32 l -1.08,-0.08 c -1.32,-0.08 -1.56,-1.04 -1.64,-2.32 l -1.4,-19.48 c -0.08,-1 0.32,-1.56 1.52,-1.68 l 1.08,-0.08 c 0.12,0 0.44,-0.04 0.44,-0.28 v -0.72 l -0.08,-0.12 h -5.36 l -8.48,20.32 c -0.2,0.4 -0.28,0.56 -0.36,0.56 -0.12,0 -0.2,-0.16 -0.32,-0.52 l -8.2,-20.36 h -5.88 l -0.12,0.12 v 0.72 c 0,0.16 0.12,0.28 0.4,0.28 l 1.16,0.08 c 1.32,0.12 1.6,0.56 1.52,1.68 l -1.92,19.52 c -0.08,1.08 -0.4,2.2 -1.6,2.28 l -1.08,0.08 c -0.24,0.04 -0.36,0.12 -0.36,0.32 v 0.76 l 0.04,0.08 c 0,0 2.2,-0.08 3.6,-0.08 1.6,0 3.68,0.08 3.68,0.08 l 0.08,-0.12 v -0.72 c 0,-0.2 -0.2,-0.28 -0.4,-0.32 l -1.04,-0.08 c -1.2,-0.08 -1.48,-1.12 -1.36,-2.28 l 1.68,-17.52 h 0.08 l 8.28,20.76 c 0.08,0.32 0.36,0.44 0.6,0.44 0.24,0 0.4,-0.12 0.56,-0.44 l 9,-21.16 h 0.08 z" />
      <path
         id="path827"
         style="font-style:normal;font-variant:normal;font-weight:normal;font-stretch:normal;font-family:'Linux Libertine O C';-inkscape-font-specification:'Linux Libertine O C';fill:#ffc426;fill-opacity:1"
         d="m 215.28703,318.06022 c 0,-5.68 -4.56,-9.4 -9.76,-9.4 -5.56,0 -9.84,4.04 -9.84,9.92 0,5.44 4.12,9.28 9.52,9.28 6.56,0 10.08,-4.6 10.08,-9.8 z m -10.12,-8.08 c 3.56,0 6.64,3.28 6.64,8.64 0,4.92 -2.44,7.92 -6,7.92 -3.88,0 -6.64,-3.52 -6.64,-8.44 0,-5.4 3,-8.12 6,-8.12 z" />
      <path
         id="path829"
         style="font-style:normal;font-variant:normal;font-weight:normal;font-stretch:normal;font-family:'Linux Libertine O C';-inkscape-font-specification:'Linux Libertine O C';fill:#ffc426;fill-opacity:1"
         d="m 235.90703,311.94022 c 0,-0.88 0.44,-1.56 1.72,-1.72 l 0.8,-0.08 c 0.16,0 0.28,-0.08 0.28,-0.2 v -0.92 l -0.12,-0.04 c 0,0 -2.32,0.08 -3.56,0.08 -1.08,0 -3.8,-0.08 -3.8,-0.08 l -0.08,0.08 v 0.88 c 0,0.12 0.24,0.2 0.4,0.2 l 0.84,0.08 c 1.16,0.12 1.76,0.92 1.76,1.72 v 9.48 c 0,0.68 -0.04,1.04 -0.28,1.04 -0.2,0 -0.56,-0.32 -1.12,-0.96 l -9.16,-12.44 -5.4,-0.08 -0.08,0.12 v 0.8 c 0,0.16 0.24,0.24 0.36,0.24 1.52,0.12 2.04,0.72 2.44,1.44 v 13.04 c 0,0.76 -0.36,1.56 -1.72,1.68 l -0.8,0.08 c -0.16,0.04 -0.4,0.08 -0.4,0.24 v 0.84 l 0.12,0.08 c 0,0 2.64,-0.08 3.72,-0.08 1.24,0 3.68,0.08 3.68,0.08 l 0.04,-0.08 v -0.84 c 0,-0.16 -0.12,-0.2 -0.28,-0.24 l -0.8,-0.08 c -1.24,-0.12 -1.8,-0.8 -1.8,-1.68 v -9.64 c 0,-0.92 0.16,-1.4 0.4,-1.4 0.2,0 0.56,0.32 1.08,0.96 l 9.4,12.52 c 0.6,0.64 0.96,0.88 1.56,0.88 0.48,0 0.8,-0.28 0.8,-1.08 z" />
      <path
         id="path831"
         style="font-style:normal;font-variant:normal;font-weight:normal;font-stretch:normal;font-family:'Linux Libertine O C';-inkscape-font-specification:'Linux Libertine O C';fill:#ffc426;fill-opacity:1"
         d="m 246.63953,324.58022 v -13.2 c 0,-1 1,-1.24 2.56,-1.24 6.72,0 7.64,4.84 7.64,9 0,5.6 -2.48,7.24 -6.88,7.24 -3.04,0 -3.32,-0.68 -3.32,-1.8 z m -5.84,2.04 v 0.84 l 0.04,0.08 c 0,0 3.04,-0.08 4.24,-0.08 1.24,0 2.64,0.08 5.84,0.08 4.44,0 9.4,-2.08 9.4,-9.08 0,-5.32 -3.28,-9.48 -9.96,-9.48 -1.04,0 -4.52,0.08 -5.28,0.08 -0.72,0 -4.24,-0.08 -4.24,-0.08 l -0.04,0.08 v 0.88 c 0,0.12 0.12,0.2 0.28,0.2 l 0.88,0.08 c 1.28,0.12 1.6,0.12 1.6,1.16 v 13.2 c 0,1.24 -0.44,1.64 -1.6,1.72 l -0.92,0.08 c -0.16,0.04 -0.24,0.12 -0.24,0.24 z" />
      <path
         id="path833"
         style="font-style:normal;font-variant:normal;font-weight:normal;font-stretch:normal;font-family:'Linux Libertine O C';-inkscape-font-specification:'Linux Libertine O C';fill:#ffc426;fill-opacity:1"
         d="m 274.82141,309.54022 c -1,0 -1.76,-0.88 -5,-0.88 -2.8,0 -5.92,1.6 -5.92,4.88 0,2.92 3.12,4.44 4.76,5.2 2.6,1.24 4.32,2.16 4.32,4.44 0,2.32 -1.04,3.6 -3.4,3.6 -2.24,0 -4.24,-1.44 -4.96,-5 l -1.12,0.08 c 0.32,2.72 0.44,4.48 0.44,5.64 0.56,-0.08 0.84,-0.24 1.32,-0.24 0.76,0 1.96,0.68 5.04,0.68 3.56,0 5.8,-2.36 5.8,-5.64 0,-3.16 -3.6,-4.8 -5.56,-5.64 -0.96,-0.44 -3.88,-1.92 -3.88,-3.84 0,-1.72 1.12,-3 3.2,-3 1.96,0 3.72,1.56 4.32,4.12 l 1.08,-0.08 c -0.08,-1.32 -0.2,-2.68 -0.44,-4.32 z" />
    </g>
  </g>
</svg>
