<?xml version="1.0" encoding="utf-8"?>
<!-- Generator: Adobe Illustrator 17.0.0, SVG Export Plug-In . SVG Version: 6.00 Build 0)  -->
<!DOCTYPE svg PUBLIC "-//W3C//DTD SVG 1.1 Tiny//EN" "http://www.w3.org/Graphics/SVG/1.1/DTD/svg11-tiny.dtd">
<svg version="1.1" baseProfile="tiny" id="Layer_1" xmlns="http://www.w3.org/2000/svg" xmlns:xlink="http://www.w3.org/1999/xlink"
	 x="0px" y="0px" width="512px" height="512px" viewBox="0 0 512 512" xml:space="preserve">
<g>
	<path fill="#020202" d="M89.041,444.418c-5.6,14.026,1.206,29.948,15.232,35.565c13.992,5.617,29.948-1.189,35.548-15.215
		l54.02-134.3c-17.731-4.584-34.928-11.011-51.159-19.402L89.041,444.418z"/>
	<path fill="#020202" d="M390.346,306.499c-15.853,9.064-32.826,16.163-50.384,21.384l55.071,136.868
		c5.617,14.026,21.556,20.833,35.565,15.215c14.009-5.617,20.833-21.539,15.215-35.565L390.346,306.499z"/>
	<path fill="#020202" d="M487.513,194.169h-29.552c1.602-7.599,2.464-15.388,2.533-23.314H64.09
		c0.052,7.926,0.896,15.715,2.482,23.314H24.39c-10.115,0-18.282,8.185-18.282,18.282c0,10.097,8.168,18.282,18.282,18.282H80.77
		c30.672,52.986,100.406,89.999,181.514,89.999c81.09,0,150.808-37.013,181.496-89.999h43.715c10.115,0,18.3-8.185,18.3-18.282
		C505.83,202.354,497.628,194.169,487.513,194.169z"/>
</g>
</svg>
